{"title":"Saare Jahan Se Mahenga 2013 1CD DTHRip Xvid (IcTv) Hindi","uid":8333390,"size":731503678,"categoryP":"video","categoryS":"movies","magnet":"?xt=urn:btih:d1dabc7c184a8b6b8cfa17f06c2479b30975d893&amp;dn=Saare+Jahan+Se+Mahenga+2013+1CD+DTHRip+Xvid+%28IcTv%29+Hindi&amp;tr=udp%3A%2F%2Ftracker.openbittorrent.com%3A80&amp;tr=udp%3A%2F%2Fopen.demonii.com%3A1337&amp;tr=udp%3A%2F%2Ftracker.coppersurfer.tk%3A6969&amp;tr=udp%3A%2F%2Fexodus.desync.com%3A6969","seeders":1,"leechers":0,"uploader":"SJonam","files":1,"time":1364926661,"description":" &lt;a href=&quot;http://desibbrg.org/images/66952052392581364616.gif&quot; rel=&quot;nofollow&quot; target=&quot;_NEW&quot;&gt;http://desibbrg.org/images/66952052392581364616.gif&lt;/a&gt; &lt;a href=&quot;\nhttp://desibbrg.org/images/26798983156358301514.jpg&quot; rel=&quot;nofollow&quot; target=&quot;_NEW&quot;&gt;\nhttp://desibbrg.org/images/26798983156358301514.jpg&lt;/a&gt; &lt;a href=&quot;\nhttp://desibbrg.org/images/52991408998995927951.jpg&quot; rel=&quot;nofollow&quot; target=&quot;_NEW&quot;&gt;\nhttp://desibbrg.org/images/52991408998995927951.jpg&lt;/a&gt; &lt;a href=&quot;\nhttp://desibbrg.org/images/46364308955165205180.jpg&quot; rel=&quot;nofollow&quot; target=&quot;_NEW&quot;&gt;\nhttp://desibbrg.org/images/46364308955165205180.jpg&lt;/a&gt; &lt;a href=&quot;\nhttp://desibbrg.org/images/76225553338574576603.jpg&quot; rel=&quot;nofollow&quot; target=&quot;_NEW&quot;&gt;\nhttp://desibbrg.org/images/76225553338574576603.jpg&lt;/a&gt; &lt;a href=&quot;\nhttp://desibbrg.org/images/28649716958605629264.jpg&quot; rel=&quot;nofollow&quot; target=&quot;_NEW&quot;&gt;\nhttp://desibbrg.org/images/28649716958605629264.jpg&lt;/a&gt; &lt;a href=&quot;\nhttp://desibbrg.org/images/03871731414051895108.jpg&quot; rel=&quot;nofollow&quot; target=&quot;_NEW&quot;&gt;\nhttp://desibbrg.org/images/03871731414051895108.jpg&lt;/a&gt;\n\nMedia Info - \nVideo\nID : 0\nFormat : MPEG-4 Visual\nFormat profile : Advanced Simple@L5\nFormat settings, BVOP : 2\nFormat settings, QPel : Yes\nFormat settings, GMC : No warppoints\nFormat settings, Matrix : Default (H.263)\nCodec ID : XVID\nCodec ID/Hint : XviD\nDuration : 1h 46mn\nBit rate : 830 Kbps\nWidth : 640 pixels\nHeight : 272 pixels\nDisplay aspect ratio : 2.35:1\nFrame rate : 23.976 fps\nColor space : YUV\nChroma subsampling : 4:2:0\nBit depth : 8 bits\nScan type : Progressive\nCompression mode : Lossy\nBits/(Pixel*Frame) : 0.199\nStream size : 631 MiB (90%)\nWriting library : XviD 1.2.1 (UTC 2008-12-04)\n\nAudio\nID : 1\nFormat : MPEG Audio\nFormat version : Version 1\nFormat profile : Layer 3\nMode : Joint stereo\nMode extension : MS Stereo\nCodec ID : 55\nCodec ID/Hint : MP3\nDuration : 1h 46mn\nBit rate mode : Variable\nBit rate : 80.0 Kbps\nChannel(s) : 2 channels\nSampling rate : 32.0 KHz\nCompression mode : Lossy\nStream size : 58.8 MiB (8%)\nAlignment : Aligned on interleaves\nInterleave, duration : 36 ms (0.86 video frame)\nInterleave, preload duration : 208 ms\nTitle : VTS_01_1 T80 2_0ch 256Kbps DELAY 0ms_new\nWriting library : LAME3.99r\nEncoding settings : -m j -V 4 -q 2 -lowpass 13.5 --abr 80\n\nRipper : -=Hell=-\n\nSeeding 24x7... Extreme Seeding...\n\n\nEnjoy!\n","torrent":{"xt":"urn:btih:d1dabc7c184a8b6b8cfa17f06c2479b30975d893","amp;dn":"Saare+Jahan+Se+Mahenga+2013+1CD+DTHRip+Xvid+%28IcTv%29+Hindi","amp;tr":["udp%3A%2F%2Ftracker.openbittorrent.com%3A80","udp%3A%2F%2Fopen.demonii.com%3A1337","udp%3A%2F%2Ftracker.coppersurfer.tk%3A6969","udp%3A%2F%2Fexodus.desync.com%3A6969"],"infoHash":"d1dabc7c184a8b6b8cfa17f06c2479b30975d893","infoHashBuffer":{"type":"Buffer","data":[209,218,188,124,24,74,139,107,140,250,23,240,108,36,121,179,9,117,216,147]},"announce":[],"urlList":[]}}